# xmcd
#
# Track frame offsets:
#	150
#	15300
#	35097
#	53972
#	72445
#	93012
#	108002
#	123357
#	139645
#	157895
#	172990
#	188715
#	213257
#	224397
#	239690
#
# Disc length: 3448 seconds
#
# Revision: 1
# Processed by: cddbd v1.5.1PL2 Copyright (c) Steve Scherf et al.
# Submitted via: audiograbber 1.83.01
#
DISCID=c60d760f
DTITLE=Ken Colyer - Wandering
DYEAR=1965
DGENRE=Skiffle
TTITLE0=I'am going to walk and talk with Jesus
TTITLE1=No letters today
TTITLE2=Ella Speed
TTITLE3=Poor Howard
TTITLE4=I can't sleep # 1
TTITLE5=Mulskinner Blues
TTITLE6=Wandering
TTITLE7=If Icould hear my mother pray again
TTITLE8=Good Morning Blues
TTITLE9=Drop down Mama
TTITLE10=Easy ridin' buggy
TTITLE11=New York Town
TTITLE12=Green Corn
TTITLE13=Casey Jones
TTITLE14=I can't sleep # 2
EXTD=
EXTT0=
EXTT1=
EXTT2=
EXTT3=
EXTT4=
EXTT5=
EXTT6=
EXTT7=
EXTT8=
EXTT9=
EXTT10=
EXTT11=
EXTT12=
EXTT13=
EXTT14=
PLAYORDER=
